<svg width="14" height="14" viewBox="0 0 14 14" fill="none" xmlns="http://www.w3.org/2000/svg">
<path d="M1.76172 5.48828H12.2383L11.1133 2.11328H2.88672L1.76172 5.48828ZM10.3047 8.93359C10.5391 9.14453 10.8086 9.25 11.1133 9.25C11.418 9.25 11.6758 9.14453 11.8867 8.93359C12.1211 8.72266 12.2383 8.45312 12.2383 8.125C12.2383 7.79688 12.1211 7.52734 11.8867 7.31641C11.6758 7.10547 11.418 7 11.1133 7C10.8086 7 10.5391 7.10547 10.3047 7.31641C10.0938 7.52734 9.98828 7.79688 9.98828 8.125C9.98828 8.45312 10.0938 8.72266 10.3047 8.93359ZM2.07812 8.93359C2.3125 9.14453 2.58203 9.25 2.88672 9.25C3.19141 9.25 3.44922 9.14453 3.66016 8.93359C3.89453 8.72266 4.01172 8.45312 4.01172 8.125C4.01172 7.79688 3.89453 7.52734 3.66016 7.31641C3.44922 7.10547 3.19141 7 2.88672 7C2.58203 7 2.3125 7.10547 2.07812 7.31641C1.86719 7.52734 1.76172 7.79688 1.76172 8.125C1.76172 8.45312 1.86719 8.72266 2.07812 8.93359ZM12.2031 1.76172L13.75 6.26172V12.2383C13.75 12.4492 13.6797 12.6367 13.5391 12.8008C13.3984 12.9414 13.2227 13.0117 13.0117 13.0117H12.2383C12.0273 13.0117 11.8516 12.9414 11.7109 12.8008C11.5703 12.6367 11.5 12.4492 11.5 12.2383V11.5H2.5V12.2383C2.5 12.4492 2.42969 12.6367 2.28906 12.8008C2.14844 12.9414 1.97266 13.0117 1.76172 13.0117H0.988281C0.777344 13.0117 0.601562 12.9414 0.460938 12.8008C0.320312 12.6367 0.25 12.4492 0.25 12.2383V6.26172L1.79688 1.76172C1.96094 1.24609 2.32422 0.988281 2.88672 0.988281H11.1133C11.6758 0.988281 12.0391 1.24609 12.2031 1.76172Z" fill="currentColor"/>
</svg>
