<svg width="12" height="18" viewBox="0 0 12 18" fill="none" xmlns="http://www.w3.org/2000/svg">
<path d="M0.6 10.8C0.75913 10.8 0.911742 10.8632 1.02426 10.9757C1.13679 11.0883 1.2 11.2409 1.2 11.4V14.4H4.8V3C4.79988 2.87983 4.83585 2.7624 4.90325 2.66291C4.97064 2.56342 5.06636 2.48646 5.178 2.442L8.286 1.2H1.2V6.6C1.2 6.75913 1.13679 6.91174 1.02426 7.02426C0.911742 7.13678 0.75913 7.2 0.6 7.2C0.44087 7.2 0.288258 7.13678 0.175736 7.02426C0.0632142 6.91174 0 6.75913 0 6.6V0.6C0 0.44087 0.0632142 0.288258 0.175736 0.175736C0.288258 0.0632141 0.44087 0 0.6 0H11.4C11.4696 8.1842e-05 11.5386 0.0122633 11.604 0.036H11.64L11.718 0.078L11.784 0.138C11.8301 0.186798 11.8668 0.243772 11.892 0.306V0.342C11.9478 0.418291 11.9848 0.506693 12 0.6V15C12.0001 15.1202 11.9641 15.2376 11.8967 15.3371C11.8294 15.4366 11.7336 15.5135 11.622 15.558L5.622 17.958C5.55133 17.9859 5.47599 18.0002 5.4 18C5.28033 18.0003 5.16332 17.9647 5.064 17.898C4.98257 17.843 4.91591 17.7688 4.86988 17.6819C4.82385 17.5951 4.79985 17.4983 4.8 17.4V15.6H0.6C0.44087 15.6 0.288258 15.5368 0.175736 15.4243C0.0632142 15.3117 0 15.1591 0 15V11.4C0 11.2409 0.0632142 11.0883 0.175736 10.9757C0.288258 10.8632 0.44087 10.8 0.6 10.8Z" fill="currentColor"/>
</svg>
