<svg width="41" height="30" viewBox="0 0 41 30" fill="none" xmlns="http://www.w3.org/2000/svg">
<path fill-rule="evenodd" clip-rule="evenodd" d="M21.0237 30C19.6248 30 16.7192 29.2891 15.8415 27.8372C15.501 28.0955 15.1437 28.331 14.7721 28.5422C12.4356 29.877 9.4072 30.39 6.69927 29.655C3.69179 28.8391 1.08272 26.4903 0.237988 22.0238C-0.0169404 20.6176 -0.0673877 19.1819 0.0882129 17.7612L1.7627 1.34988C1.79996 0.978635 1.97406 0.634617 2.25101 0.385014C2.52795 0.135412 2.88786 -0.00185095 3.26045 1.88544e-05H8.06672C8.27591 0.0002257 8.48273 0.044313 8.67388 0.129443C8.86502 0.214573 9.03624 0.33887 9.1765 0.494299C9.31675 0.649728 9.42293 0.832851 9.4882 1.03188C9.55348 1.23091 9.57639 1.44142 9.55547 1.64985L7.88699 17.9982C7.27292 23.9856 15.199 23.9976 15.843 18.0342V17.9982L17.5415 1.34988C17.5787 0.978635 17.7528 0.634617 18.0298 0.385014C18.3067 0.135412 18.6666 -0.00185095 19.0392 1.88544e-05H23.85C24.0592 0.0002257 24.266 0.044313 24.4571 0.129443C24.6483 0.214573 24.8195 0.33887 24.9598 0.494299C25.1 0.649728 25.2062 0.832851 25.2715 1.03188C25.3367 1.23091 25.3596 1.44142 25.3387 1.64985L23.3347 21.2739C23.1131 23.9886 24.9943 23.9916 25.9318 23.9916H26.4141C26.5868 23.9916 26.7541 24.0513 26.8878 24.1606C27.0216 24.2699 27.1135 24.4221 27.148 24.5915C27.8565 27.7592 24.1061 30 21.0237 30ZM36.587 27.2703C36.5273 27.847 36.3021 28.3941 35.9384 28.8453C35.5748 29.2965 35.0883 29.6325 34.538 29.8126C33.9876 29.9927 33.397 30.0093 32.8374 29.8602C32.2779 29.7112 31.7734 29.4029 31.3852 28.9728C30.9969 28.5427 30.7415 28.0091 30.6497 27.4366C30.558 26.8641 30.6339 26.2773 30.8683 25.7471C31.1027 25.2169 31.4855 24.7661 31.9704 24.4492C32.4552 24.1323 33.0215 23.963 33.6005 23.9616C34.0204 23.9607 34.4359 24.0481 34.82 24.2184C35.204 24.3886 35.548 24.6378 35.8296 24.9499C36.1113 25.2619 36.3242 25.6297 36.4547 26.0294C36.5851 26.4292 36.6302 26.852 36.587 27.2703ZM37.3804 20.6035L40.0315 1.7054C40.0603 1.49327 40.0435 1.27741 39.9821 1.07234C39.9207 0.867264 39.8163 0.677734 39.6756 0.516468C39.535 0.355203 39.3616 0.225939 39.1669 0.137387C38.9723 0.0488344 38.761 0.00304103 38.5472 0.00307409H33.8428C33.4623 0.0022181 33.0958 0.146374 32.8177 0.406268C32.5395 0.666163 32.3705 1.02231 32.345 1.40243L31.0195 20.3005C31.0058 20.5058 31.0343 20.7117 31.1034 20.9054C31.1725 21.0991 31.2806 21.2766 31.4211 21.4267C31.5615 21.5768 31.7314 21.6963 31.9199 21.7779C32.1085 21.8595 32.3118 21.9013 32.5173 21.9009H35.8962C36.2584 21.9009 36.6084 21.7695 36.8813 21.531C37.1542 21.2924 37.3315 20.9629 37.3804 20.6035Z" fill="currentColor"/>
</svg>
