<svg width="93" height="30" viewBox="0 0 93 30" fill="none" xmlns="http://www.w3.org/2000/svg">
<path fill-rule="evenodd" clip-rule="evenodd" d="M79.4182 24.1383C79.5519 24.2475 79.6438 24.3996 79.6783 24.5687C80.3763 27.6772 76.7514 29.892 73.6999 29.955H73.5498C72.5622 29.955 70.818 29.6026 69.5722 28.8813C69.0881 28.625 68.6754 28.2525 68.3714 27.7972C68.0315 28.0554 67.6744 28.2904 67.3027 28.5004L67.1676 28.5754C61.1081 31.9194 54.6794 29.1078 52.8527 22.6432C51.3877 17.4623 52.0196 11.1028 54.2876 6.27426C55.9657 2.69485 59.8068 0.333077 63.6973 0.0331691C64.9545 -0.0675326 66.2195 0.0615256 67.4303 0.41404C67.5447 0.447649 67.8058 0.570006 68.1292 0.721489L68.1293 0.721559C68.9601 1.11077 70.2012 1.69219 70.4172 1.45473C70.5077 1.35502 70.6144 1.16552 70.7326 0.955762C70.9751 0.525163 71.2658 0.00917136 71.5625 0.00917136H76.3807C76.4815 0.00942407 76.582 0.0194609 76.6809 0.0391549C77.043 0.116439 77.3637 0.32473 77.5815 0.623979C77.81 0.966886 77.908 1.38025 77.8576 1.78913C77.8297 2.13652 77.7942 2.48308 77.7587 2.83005L77.7587 2.83059L77.7586 2.83113C77.7465 2.94959 77.7344 3.06809 77.7225 3.18669C77.5905 4.53628 76.5293 15.0256 76.1375 18.8854C76.121 19.0488 76.1025 19.2164 76.0837 19.3867C75.8528 21.4796 75.5781 23.9688 78.4625 23.9688H78.9444C79.1171 23.9691 79.2845 24.029 79.4182 24.1383ZM68.1853 18.4415L68.8427 12.0205C69.3245 7.34042 64.5634 6.32223 62.1693 8.95842C61.5426 9.6752 61.1609 10.5729 61.0796 11.5211L60.4177 17.9947C60.248 19.6576 60.7359 21.3072 62.3404 22.0569C63.0106 22.3599 63.7502 22.4765 64.4812 22.3944C65.2123 22.3123 65.9075 22.0346 66.4937 21.5905C66.9746 21.2077 67.3726 20.7311 67.6634 20.1897C67.9542 19.6484 68.1318 19.0536 68.1853 18.4415ZM21.0272 29.9986C19.6283 29.9986 16.7224 29.2893 15.8443 27.8407C15.5035 28.0985 15.146 28.3335 14.7741 28.544C12.437 29.8756 9.40804 30.3885 6.70025 29.6552C3.69827 28.8409 1.08355 26.4971 0.238496 22.0405C-0.0169731 20.6376 -0.0675318 19.2052 0.0883976 17.7878L1.7635 1.41134C1.80068 1.04171 1.97387 0.69904 2.24952 0.449704C2.52516 0.200367 2.88364 0.0621156 3.25548 0.0617488H8.05864C8.26804 0.0623736 8.47499 0.106765 8.66619 0.192062C8.85738 0.277359 9.0286 0.401675 9.16883 0.557026C9.30906 0.712376 9.41521 0.895312 9.48044 1.09409C9.54568 1.29287 9.56856 1.5031 9.54762 1.71124L7.87852 18.0203C7.26462 23.9944 15.1928 24.0064 15.8338 18.0562V18.0203L17.5329 1.40533C17.5701 1.03571 17.7433 0.693036 18.0189 0.4437C18.2946 0.194363 18.653 0.0561116 19.0249 0.0557448H23.8355C24.0449 0.0563696 24.2519 0.100761 24.4431 0.186058C24.6343 0.271355 24.8055 0.395671 24.9457 0.551022C25.086 0.706372 25.1921 0.889326 25.2573 1.08811C25.3226 1.28689 25.3455 1.4971 25.3245 1.70524L23.3207 21.2863C23.1151 24.0169 24.9973 24.0169 25.9339 24.0169H26.4172C26.59 24.0172 26.7574 24.0771 26.8911 24.1863C27.0248 24.2956 27.1167 24.4476 27.1512 24.6167C27.8612 27.7658 24.1102 29.9986 21.0272 29.9986ZM53.5192 1.9735L41.8791 27.5392C41.5451 28.273 41.0067 28.8952 40.3282 29.3316C39.6498 29.7679 38.8599 30 38.0531 29.9999H34.8199C33.779 30.0001 32.775 29.6143 32.0024 28.9173C31.2299 28.2203 30.7437 27.2617 30.6382 26.2271L28.115 1.55362C28.0962 1.36626 28.1168 1.17704 28.1755 0.998116C28.2342 0.819193 28.3298 0.65454 28.456 0.514719C28.5823 0.374899 28.7364 0.263023 28.9085 0.186274C29.0806 0.109525 29.2669 0.0696063 29.4554 0.0690857H34.5587C34.8926 0.0695237 35.2144 0.193406 35.4622 0.416861C35.7099 0.640316 35.8661 0.94751 35.9006 1.27921L37.4752 16.6555C37.4933 16.818 37.5641 16.9701 37.6768 17.0887C37.7895 17.2072 37.9379 17.2857 38.0994 17.3122C38.2609 17.3387 38.4267 17.3117 38.5714 17.2354C38.7161 17.1591 38.8319 17.0376 38.9011 16.8894L46.2019 0.857846C46.3095 0.622695 46.4823 0.423339 46.7 0.28351C46.9177 0.143681 47.1709 0.0692612 47.4297 0.0690857H52.2869C52.5127 0.068942 52.7349 0.125332 52.9332 0.233098C53.1316 0.340864 53.2997 0.496563 53.4223 0.68598C53.5448 0.875398 53.6179 1.09249 53.6349 1.31741C53.6518 1.54232 53.6121 1.76789 53.5192 1.9735ZM89.1211 27.2755C89.063 27.8529 88.8384 28.4011 88.4746 28.8536C88.1108 29.3061 87.6234 29.6434 87.0715 29.8247C86.5196 30.0059 85.927 30.0233 85.3654 29.8746C84.8038 29.726 84.2975 29.4178 83.9078 28.9874C83.5181 28.557 83.2618 28.0229 83.1699 27.4498C83.078 26.8767 83.1546 26.2893 83.3903 25.7589C83.6259 25.2284 84.0106 24.7776 84.4977 24.4613C84.9847 24.1449 85.5531 23.9765 86.1341 23.9765C86.554 23.9751 86.9696 24.062 87.3537 24.2315C87.7379 24.4011 88.082 24.6495 88.3637 24.9607C88.6454 25.2719 88.8585 25.6388 88.9889 26.0376C89.1194 26.4364 89.1644 26.8581 89.1211 27.2755ZM89.9136 20.6264L92.5659 1.76663C92.5943 1.55491 92.5771 1.33955 92.5155 1.13499C92.4539 0.930424 92.3492 0.741377 92.2085 0.58051C92.0678 0.419643 91.8943 0.29067 91.6997 0.20222C91.5051 0.113771 91.2937 0.067899 91.0799 0.0676606H86.3758C85.9953 0.0667281 85.6286 0.210225 85.3499 0.469125C85.0713 0.728024 84.9015 1.08299 84.8748 1.46222L83.5494 20.322C83.5359 20.527 83.5646 20.7327 83.6339 20.9262C83.7033 21.1197 83.8117 21.297 83.9525 21.4469C84.0932 21.5968 84.2633 21.7162 84.4522 21.7976C84.6411 21.8791 84.8447 21.9209 85.0504 21.9205H88.4291C88.7912 21.9199 89.1409 21.7886 89.4137 21.5508C89.6865 21.313 89.864 20.9847 89.9136 20.6264Z" fill="#FF3D00"/>
</svg>
