<svg width="14" height="16" viewBox="0 0 14 16" fill="none" xmlns="http://www.w3.org/2000/svg">
<path d="M9.98828 3.5C9.98828 2.79688 10.3633 2.12891 11.1133 1.49609C11.8867 0.839844 12.7656 0.511719 13.75 0.511719V15.4883H11.8867V9.51172H9.98828V3.5ZM6.26172 5.75V0.511719H7.73828V5.75C7.73828 6.54688 7.46875 7.23828 6.92969 7.82422C6.39062 8.38672 5.72266 8.69141 4.92578 8.73828V15.4883H3.0625V8.73828C2.26562 8.69141 1.59766 8.38672 1.05859 7.82422C0.519531 7.23828 0.25 6.54688 0.25 5.75V0.511719H1.76172V5.75H3.23828V0.511719H4.75V5.75H6.26172Z" fill="currentColor"/>
</svg>
