<svg width="18" height="16" viewBox="0 0 18 16" fill="none" xmlns="http://www.w3.org/2000/svg">
<path d="M7.26172 7.26172C9.26699 7.26172 10.8926 5.63613 10.8926 3.63086C10.8926 1.62559 9.26699 0 7.26172 0C5.25645 0 3.63086 1.62559 3.63086 3.63086C3.63086 5.63613 5.25645 7.26172 7.26172 7.26172Z" fill="currentColor"/>
<path d="M7.86989 8.18808C7.6702 8.179 7.4705 8.16992 7.26172 8.16992C5.06505 8.16992 3.01362 8.77809 1.26172 9.82196C0.462935 10.294 0 11.1835 0 12.1185V14.5239H8.40545C7.68835 13.4982 7.26172 12.2456 7.26172 10.8931C7.26172 9.92181 7.48865 9.0141 7.86989 8.18808Z" fill="currentColor"/>
<path d="M17.0196 10.8921C17.0196 10.6924 16.9924 10.5109 16.9652 10.3202L18 9.40344L17.0923 7.83309L15.7761 8.27787C15.4856 8.03279 15.1588 7.84217 14.7957 7.70601L14.5234 6.35352H12.708L12.4357 7.70601C12.0726 7.84217 11.7458 8.03279 11.4553 8.27787L10.1392 7.83309L9.23145 9.40344L10.2662 10.3202C10.239 10.5109 10.2118 10.6924 10.2118 10.8921C10.2118 11.0918 10.239 11.2733 10.2662 11.464L9.23145 12.3807L10.1392 13.9511L11.4553 13.5063C11.7458 13.7514 12.0726 13.942 12.4357 14.0782L12.708 15.4307H14.5234L14.7957 14.0782C15.1588 13.942 15.4856 13.7514 15.7761 13.5063L17.0923 13.9511L18 12.3807L16.9652 11.464C16.9924 11.2733 17.0196 11.0918 17.0196 10.8921ZM13.6157 12.7075C12.6172 12.7075 11.8003 11.8906 11.8003 10.8921C11.8003 9.89361 12.6172 9.07666 13.6157 9.07666C14.6142 9.07666 15.4311 9.89361 15.4311 10.8921C15.4311 11.8906 14.6142 12.7075 13.6157 12.7075Z" fill="currentColor"/>
</svg>
