<svg width="16" height="14" viewBox="0 0 16 14" fill="none" xmlns="http://www.w3.org/2000/svg">
<path d="M14.75 7.165C14.75 3.0475 11.555 0.25 8 0.25C4.4825 0.25 1.25 2.9875 1.25 7.21C0.8 7.465 0.5 7.945 0.5 8.5V10C0.5 10.825 1.175 11.5 2 11.5H2.75V6.925C2.75 4.0225 5.0975 1.675 8 1.675C10.9025 1.675 13.25 4.0225 13.25 6.925V12.25H7.25V13.75H13.25C14.075 13.75 14.75 13.075 14.75 12.25V11.335C15.1925 11.1025 15.5 10.645 15.5 10.105V8.38C15.5 7.855 15.1925 7.3975 14.75 7.165Z" fill="currentColor"/>
<path d="M5.75 8.5C6.16421 8.5 6.5 8.16421 6.5 7.75C6.5 7.33579 6.16421 7 5.75 7C5.33579 7 5 7.33579 5 7.75C5 8.16421 5.33579 8.5 5.75 8.5Z" fill="currentColor"/>
<path d="M10.25 8.5C10.6642 8.5 11 8.16421 11 7.75C11 7.33579 10.6642 7 10.25 7C9.83579 7 9.5 7.33579 9.5 7.75C9.5 8.16421 9.83579 8.5 10.25 8.5Z" fill="currentColor"/>
<path d="M12.4999 6.2725C12.1399 4.135 10.2799 2.5 8.03735 2.5C5.76485 2.5 3.31985 4.3825 3.51485 7.3375C5.36735 6.58 6.76235 4.93 7.15985 2.92C8.14235 4.8925 10.1599 6.25 12.4999 6.2725Z" fill="currentColor"/>
</svg>
